<mxfile host="app.diagrams.net" modified="2023-07-05T18:22:39.506Z" agent="Mozilla/5.0 (Windows NT 10.0; Win64; x64) AppleWebKit/537.36 (KHTML, like Gecko) Chrome/114.0.0.0 Safari/537.36" etag="5sJmFkyXQLGZGMvezIEL" version="21.5.2" type="github">
  <diagram id="C5RBs43oDa-KdzZeNtuy" name="Page-1">
    <mxGraphModel dx="482" dy="691" grid="1" gridSize="16" guides="1" tooltips="1" connect="1" arrows="1" fold="1" page="1" pageScale="1" pageWidth="827" pageHeight="1169" background="#DEE6FA" math="0" shadow="0">
      <root>
        <mxCell id="WIyWlLk6GJQsqaUBKTNV-0" />
        <mxCell id="WIyWlLk6GJQsqaUBKTNV-1" parent="WIyWlLk6GJQsqaUBKTNV-0" />
        <mxCell id="aztCClMb9fiekYysPnz5-6" style="edgeStyle=orthogonalEdgeStyle;rounded=0;orthogonalLoop=1;jettySize=auto;html=1;entryX=0.5;entryY=0;entryDx=0;entryDy=0;entryPerimeter=0;" parent="WIyWlLk6GJQsqaUBKTNV-1" source="aztCClMb9fiekYysPnz5-3" target="aztCClMb9fiekYysPnz5-5" edge="1">
          <mxGeometry relative="1" as="geometry" />
        </mxCell>
        <mxCell id="aztCClMb9fiekYysPnz5-3" value="トップページ" style="rounded=1;whiteSpace=wrap;html=1;fontSize=12;glass=0;strokeWidth=1;shadow=0;fontStyle=1;fontColor=#fff;fillColor=#333;" parent="WIyWlLk6GJQsqaUBKTNV-1" vertex="1">
          <mxGeometry x="353" y="220" width="120" height="40" as="geometry" />
        </mxCell>
        <mxCell id="aztCClMb9fiekYysPnz5-11" style="edgeStyle=orthogonalEdgeStyle;rounded=0;orthogonalLoop=1;jettySize=auto;html=1;entryX=0.569;entryY=-0.129;entryDx=0;entryDy=0;entryPerimeter=0;" parent="WIyWlLk6GJQsqaUBKTNV-1" source="aztCClMb9fiekYysPnz5-5" target="aztCClMb9fiekYysPnz5-9" edge="1">
          <mxGeometry relative="1" as="geometry" />
        </mxCell>
        <mxCell id="aztCClMb9fiekYysPnz5-12" value="はい" style="edgeLabel;align=center;verticalAlign=middle;resizable=0;points=[];fontStyle=1;html=1;labelBorderColor=none;labelBackgroundColor=default;fontColor=default;fontFamily=Times New Roman;" parent="aztCClMb9fiekYysPnz5-11" vertex="1" connectable="0">
          <mxGeometry x="-0.0638" y="-1" relative="1" as="geometry">
            <mxPoint as="offset" />
          </mxGeometry>
        </mxCell>
        <mxCell id="ltHdWcRN-C3PWxI5edL5-7" style="edgeStyle=orthogonalEdgeStyle;rounded=0;orthogonalLoop=1;jettySize=auto;html=1;entryX=0.25;entryY=0;entryDx=0;entryDy=0;" parent="WIyWlLk6GJQsqaUBKTNV-1" source="aztCClMb9fiekYysPnz5-5" target="ltHdWcRN-C3PWxI5edL5-5" edge="1">
          <mxGeometry relative="1" as="geometry" />
        </mxCell>
        <mxCell id="ltHdWcRN-C3PWxI5edL5-10" value="&lt;b&gt;いいえ&lt;/b&gt;" style="edgeLabel;html=1;align=center;verticalAlign=middle;resizable=0;points=[];" parent="ltHdWcRN-C3PWxI5edL5-7" vertex="1" connectable="0">
          <mxGeometry x="-0.1211" y="2" relative="1" as="geometry">
            <mxPoint as="offset" />
          </mxGeometry>
        </mxCell>
        <mxCell id="aztCClMb9fiekYysPnz5-5" value="アカウントは&lt;br&gt;登録済みですか" style="strokeWidth=2;html=1;shape=mxgraph.flowchart.decision;whiteSpace=wrap;fontStyle=1" parent="WIyWlLk6GJQsqaUBKTNV-1" vertex="1">
          <mxGeometry x="390" y="300" width="150" height="100" as="geometry" />
        </mxCell>
        <mxCell id="aztCClMb9fiekYysPnz5-8" value="" style="group" parent="WIyWlLk6GJQsqaUBKTNV-1" vertex="1" connectable="0">
          <mxGeometry x="280" y="410" width="100" height="40" as="geometry" />
        </mxCell>
        <mxCell id="aztCClMb9fiekYysPnz5-9" value="" style="rounded=1;whiteSpace=wrap;html=1;" parent="aztCClMb9fiekYysPnz5-8" vertex="1">
          <mxGeometry width="100" height="40" as="geometry" />
        </mxCell>
        <mxCell id="hQmpsot-Bo15s6lT0mzz-2" style="edgeStyle=orthogonalEdgeStyle;rounded=0;orthogonalLoop=1;jettySize=auto;html=1;" parent="aztCClMb9fiekYysPnz5-8" source="aztCClMb9fiekYysPnz5-10" edge="1">
          <mxGeometry relative="1" as="geometry">
            <mxPoint x="50" y="134" as="targetPoint" />
          </mxGeometry>
        </mxCell>
        <mxCell id="aztCClMb9fiekYysPnz5-10" value="ログインページ" style="text;html=1;strokeColor=none;fillColor=none;align=center;verticalAlign=middle;whiteSpace=wrap;rounded=0;fontSize=12;fontStyle=1" parent="aztCClMb9fiekYysPnz5-8" vertex="1">
          <mxGeometry y="5" width="100" height="30" as="geometry" />
        </mxCell>
        <mxCell id="aztCClMb9fiekYysPnz5-19" style="edgeStyle=orthogonalEdgeStyle;rounded=0;orthogonalLoop=1;jettySize=auto;html=1;exitX=0.5;exitY=0;exitDx=0;exitDy=0;exitPerimeter=0;entryX=0.25;entryY=0;entryDx=0;entryDy=0;" parent="WIyWlLk6GJQsqaUBKTNV-1" source="aztCClMb9fiekYysPnz5-13" target="aztCClMb9fiekYysPnz5-9" edge="1">
          <mxGeometry relative="1" as="geometry" />
        </mxCell>
        <mxCell id="aztCClMb9fiekYysPnz5-21" value="&lt;font face=&quot;Times New Roman&quot;&gt;&lt;b&gt;いいえ&lt;br&gt;&lt;/b&gt;&lt;/font&gt;" style="edgeLabel;html=1;align=center;verticalAlign=middle;resizable=0;points=[];" parent="aztCClMb9fiekYysPnz5-19" vertex="1" connectable="0">
          <mxGeometry x="-0.1329" y="2" relative="1" as="geometry">
            <mxPoint as="offset" />
          </mxGeometry>
        </mxCell>
        <mxCell id="aztCClMb9fiekYysPnz5-26" style="edgeStyle=orthogonalEdgeStyle;rounded=0;orthogonalLoop=1;jettySize=auto;html=1;entryX=0.5;entryY=0;entryDx=0;entryDy=0;entryPerimeter=0;" parent="WIyWlLk6GJQsqaUBKTNV-1" source="aztCClMb9fiekYysPnz5-13" target="aztCClMb9fiekYysPnz5-30" edge="1">
          <mxGeometry relative="1" as="geometry">
            <mxPoint x="175" y="530" as="targetPoint" />
          </mxGeometry>
        </mxCell>
        <mxCell id="aztCClMb9fiekYysPnz5-28" value="&lt;font face=&quot;Times New Roman&quot;&gt;&lt;b&gt;はい&lt;/b&gt;&lt;br&gt;&lt;/font&gt;" style="edgeLabel;html=1;align=center;verticalAlign=middle;resizable=0;points=[];" parent="aztCClMb9fiekYysPnz5-26" vertex="1" connectable="0">
          <mxGeometry x="-0.0237" y="-3" relative="1" as="geometry">
            <mxPoint as="offset" />
          </mxGeometry>
        </mxCell>
        <mxCell id="aztCClMb9fiekYysPnz5-13" value="&lt;b&gt;&lt;font face=&quot;Times New Roman&quot;&gt;パスワードを忘れた&lt;/font&gt;&lt;/b&gt;" style="strokeWidth=2;html=1;shape=mxgraph.flowchart.decision;whiteSpace=wrap;" parent="WIyWlLk6GJQsqaUBKTNV-1" vertex="1">
          <mxGeometry x="90" y="300" width="150" height="100" as="geometry" />
        </mxCell>
        <mxCell id="aztCClMb9fiekYysPnz5-15" style="edgeStyle=orthogonalEdgeStyle;rounded=0;orthogonalLoop=1;jettySize=auto;html=1;" parent="WIyWlLk6GJQsqaUBKTNV-1" source="aztCClMb9fiekYysPnz5-10" target="aztCClMb9fiekYysPnz5-5" edge="1">
          <mxGeometry relative="1" as="geometry" />
        </mxCell>
        <mxCell id="aztCClMb9fiekYysPnz5-18" style="edgeStyle=orthogonalEdgeStyle;rounded=0;orthogonalLoop=1;jettySize=auto;html=1;entryX=1;entryY=0.5;entryDx=0;entryDy=0;entryPerimeter=0;" parent="WIyWlLk6GJQsqaUBKTNV-1" source="aztCClMb9fiekYysPnz5-10" target="aztCClMb9fiekYysPnz5-13" edge="1">
          <mxGeometry relative="1" as="geometry" />
        </mxCell>
        <mxCell id="aztCClMb9fiekYysPnz5-32" style="edgeStyle=orthogonalEdgeStyle;rounded=0;orthogonalLoop=1;jettySize=auto;html=1;entryX=0.3;entryY=0.955;entryDx=0;entryDy=0;entryPerimeter=0;" parent="WIyWlLk6GJQsqaUBKTNV-1" source="aztCClMb9fiekYysPnz5-30" target="aztCClMb9fiekYysPnz5-9" edge="1">
          <mxGeometry relative="1" as="geometry" />
        </mxCell>
        <mxCell id="aztCClMb9fiekYysPnz5-33" value="&lt;font face=&quot;Times New Roman&quot;&gt;&lt;b&gt;いいえ&lt;br&gt;&lt;/b&gt;&lt;/font&gt;" style="edgeLabel;html=1;align=center;verticalAlign=middle;resizable=0;points=[];" parent="aztCClMb9fiekYysPnz5-32" vertex="1" connectable="0">
          <mxGeometry x="0.0955" y="2" relative="1" as="geometry">
            <mxPoint as="offset" />
          </mxGeometry>
        </mxCell>
        <mxCell id="aztCClMb9fiekYysPnz5-57" style="edgeStyle=orthogonalEdgeStyle;rounded=0;orthogonalLoop=1;jettySize=auto;html=1;exitX=0;exitY=0.5;exitDx=0;exitDy=0;exitPerimeter=0;entryX=0.168;entryY=0.993;entryDx=0;entryDy=0;entryPerimeter=0;" parent="WIyWlLk6GJQsqaUBKTNV-1" source="aztCClMb9fiekYysPnz5-30" target="aztCClMb9fiekYysPnz5-35" edge="1">
          <mxGeometry relative="1" as="geometry">
            <mxPoint x="60" y="200" as="targetPoint" />
          </mxGeometry>
        </mxCell>
        <mxCell id="ltHdWcRN-C3PWxI5edL5-1" value="はい" style="edgeLabel;html=1;align=center;verticalAlign=middle;resizable=0;points=[];fontStyle=1" parent="aztCClMb9fiekYysPnz5-57" vertex="1" connectable="0">
          <mxGeometry x="-0.8748" y="-3" relative="1" as="geometry">
            <mxPoint x="-1" as="offset" />
          </mxGeometry>
        </mxCell>
        <mxCell id="aztCClMb9fiekYysPnz5-30" value="&lt;b&gt;パスワードをリセットする&lt;br&gt;（メール送信ページ）&lt;br&gt;&lt;/b&gt;" style="strokeWidth=2;html=1;shape=mxgraph.flowchart.decision;whiteSpace=wrap;" parent="WIyWlLk6GJQsqaUBKTNV-1" vertex="1">
          <mxGeometry x="80" y="460" width="192" height="100" as="geometry" />
        </mxCell>
        <mxCell id="aztCClMb9fiekYysPnz5-34" value="" style="group" parent="WIyWlLk6GJQsqaUBKTNV-1" vertex="1" connectable="0">
          <mxGeometry x="40" y="200" width="125" height="40" as="geometry" />
        </mxCell>
        <mxCell id="aztCClMb9fiekYysPnz5-35" value="" style="rounded=1;whiteSpace=wrap;html=1;" parent="aztCClMb9fiekYysPnz5-34" vertex="1">
          <mxGeometry width="125" height="40" as="geometry" />
        </mxCell>
        <mxCell id="aztCClMb9fiekYysPnz5-36" value="パスワード変更メールが送信される" style="text;html=1;strokeColor=none;fillColor=none;align=center;verticalAlign=middle;whiteSpace=wrap;rounded=0;fontSize=12;fontStyle=1" parent="aztCClMb9fiekYysPnz5-34" vertex="1">
          <mxGeometry y="5" width="125" height="30" as="geometry" />
        </mxCell>
        <mxCell id="aztCClMb9fiekYysPnz5-39" value="" style="group" parent="WIyWlLk6GJQsqaUBKTNV-1" vertex="1" connectable="0">
          <mxGeometry x="210" y="200" width="130" height="40" as="geometry" />
        </mxCell>
        <mxCell id="aztCClMb9fiekYysPnz5-40" value="" style="rounded=1;whiteSpace=wrap;html=1;" parent="aztCClMb9fiekYysPnz5-39" vertex="1">
          <mxGeometry width="130.00000000000003" height="40" as="geometry" />
        </mxCell>
        <mxCell id="aztCClMb9fiekYysPnz5-41" value="メールからパスワード&lt;br&gt;入力ページに飛ぶ" style="text;html=1;strokeColor=none;fillColor=none;align=center;verticalAlign=middle;whiteSpace=wrap;rounded=0;fontSize=12;fontStyle=1" parent="aztCClMb9fiekYysPnz5-39" vertex="1">
          <mxGeometry y="5" width="130.00000000000003" height="30" as="geometry" />
        </mxCell>
        <mxCell id="aztCClMb9fiekYysPnz5-53" value="" style="group" parent="WIyWlLk6GJQsqaUBKTNV-1" vertex="1" connectable="0">
          <mxGeometry x="333" y="130" width="160" height="60" as="geometry" />
        </mxCell>
        <mxCell id="aztCClMb9fiekYysPnz5-50" value="" style="verticalLabelPosition=bottom;verticalAlign=top;html=1;shape=mxgraph.flowchart.on-page_reference;" parent="aztCClMb9fiekYysPnz5-53" vertex="1">
          <mxGeometry width="160" height="60" as="geometry" />
        </mxCell>
        <mxCell id="aztCClMb9fiekYysPnz5-51" value="入力のバリデーションに&lt;br&gt;引っかからなければ" style="text;html=1;strokeColor=none;fillColor=none;align=center;verticalAlign=middle;whiteSpace=wrap;rounded=0;" parent="aztCClMb9fiekYysPnz5-53" vertex="1">
          <mxGeometry x="10" y="15" width="140" height="30" as="geometry" />
        </mxCell>
        <mxCell id="aztCClMb9fiekYysPnz5-58" style="edgeStyle=orthogonalEdgeStyle;rounded=0;orthogonalLoop=1;jettySize=auto;html=1;entryX=0;entryY=0.5;entryDx=0;entryDy=0;" parent="WIyWlLk6GJQsqaUBKTNV-1" source="aztCClMb9fiekYysPnz5-36" target="aztCClMb9fiekYysPnz5-41" edge="1">
          <mxGeometry relative="1" as="geometry" />
        </mxCell>
        <mxCell id="aztCClMb9fiekYysPnz5-59" style="edgeStyle=orthogonalEdgeStyle;rounded=0;orthogonalLoop=1;jettySize=auto;html=1;entryX=0;entryY=0.5;entryDx=0;entryDy=0;entryPerimeter=0;" parent="WIyWlLk6GJQsqaUBKTNV-1" source="aztCClMb9fiekYysPnz5-41" target="aztCClMb9fiekYysPnz5-50" edge="1">
          <mxGeometry relative="1" as="geometry" />
        </mxCell>
        <mxCell id="ltHdWcRN-C3PWxI5edL5-4" value="" style="group" parent="WIyWlLk6GJQsqaUBKTNV-1" vertex="1" connectable="0">
          <mxGeometry x="560" y="410" width="100" height="40" as="geometry" />
        </mxCell>
        <mxCell id="ltHdWcRN-C3PWxI5edL5-5" value="" style="rounded=1;whiteSpace=wrap;html=1;" parent="ltHdWcRN-C3PWxI5edL5-4" vertex="1">
          <mxGeometry width="100" height="40" as="geometry" />
        </mxCell>
        <mxCell id="ltHdWcRN-C3PWxI5edL5-6" value="会員登録ページ" style="text;html=1;strokeColor=none;fillColor=none;align=center;verticalAlign=middle;whiteSpace=wrap;rounded=0;fontSize=12;fontStyle=1" parent="ltHdWcRN-C3PWxI5edL5-4" vertex="1">
          <mxGeometry y="5" width="100" height="30" as="geometry" />
        </mxCell>
        <mxCell id="ltHdWcRN-C3PWxI5edL5-8" style="edgeStyle=orthogonalEdgeStyle;rounded=0;orthogonalLoop=1;jettySize=auto;html=1;entryX=0.5;entryY=1;entryDx=0;entryDy=0;entryPerimeter=0;" parent="WIyWlLk6GJQsqaUBKTNV-1" source="ltHdWcRN-C3PWxI5edL5-6" target="aztCClMb9fiekYysPnz5-5" edge="1">
          <mxGeometry relative="1" as="geometry" />
        </mxCell>
        <mxCell id="ltHdWcRN-C3PWxI5edL5-11" value="" style="group" parent="WIyWlLk6GJQsqaUBKTNV-1" vertex="1" connectable="0">
          <mxGeometry x="473" y="490" width="100" height="40" as="geometry" />
        </mxCell>
        <mxCell id="ltHdWcRN-C3PWxI5edL5-12" value="&lt;b&gt;認証メール送信&lt;br&gt;通知ページ&lt;/b&gt;" style="rounded=1;whiteSpace=wrap;html=1;" parent="ltHdWcRN-C3PWxI5edL5-11" vertex="1">
          <mxGeometry width="100" height="40" as="geometry" />
        </mxCell>
        <mxCell id="hQmpsot-Bo15s6lT0mzz-0" style="edgeStyle=orthogonalEdgeStyle;rounded=0;orthogonalLoop=1;jettySize=auto;html=1;entryX=1;entryY=0.25;entryDx=0;entryDy=0;" parent="WIyWlLk6GJQsqaUBKTNV-1" source="ltHdWcRN-C3PWxI5edL5-6" target="ltHdWcRN-C3PWxI5edL5-12" edge="1">
          <mxGeometry relative="1" as="geometry" />
        </mxCell>
        <mxCell id="hQmpsot-Bo15s6lT0mzz-1" style="edgeStyle=orthogonalEdgeStyle;rounded=0;orthogonalLoop=1;jettySize=auto;html=1;exitX=0;exitY=0.5;exitDx=0;exitDy=0;entryX=0.88;entryY=0.95;entryDx=0;entryDy=0;entryPerimeter=0;" parent="WIyWlLk6GJQsqaUBKTNV-1" source="ltHdWcRN-C3PWxI5edL5-12" target="aztCClMb9fiekYysPnz5-9" edge="1">
          <mxGeometry relative="1" as="geometry" />
        </mxCell>
        <mxCell id="hQmpsot-Bo15s6lT0mzz-3" value="" style="group" parent="WIyWlLk6GJQsqaUBKTNV-1" vertex="1" connectable="0">
          <mxGeometry x="254" y="544" width="160" height="60" as="geometry" />
        </mxCell>
        <mxCell id="hQmpsot-Bo15s6lT0mzz-4" value="" style="verticalLabelPosition=bottom;verticalAlign=top;html=1;shape=mxgraph.flowchart.on-page_reference;" parent="hQmpsot-Bo15s6lT0mzz-3" vertex="1">
          <mxGeometry width="160" height="60" as="geometry" />
        </mxCell>
        <mxCell id="hQmpsot-Bo15s6lT0mzz-5" value="入力のバリデーションに&lt;br&gt;引っかからなければ" style="text;html=1;strokeColor=none;fillColor=none;align=center;verticalAlign=middle;whiteSpace=wrap;rounded=0;" parent="hQmpsot-Bo15s6lT0mzz-3" vertex="1">
          <mxGeometry x="10" y="15" width="140" height="30" as="geometry" />
        </mxCell>
        <mxCell id="hQmpsot-Bo15s6lT0mzz-34" style="edgeStyle=orthogonalEdgeStyle;rounded=0;orthogonalLoop=1;jettySize=auto;html=1;entryX=0;entryY=0.75;entryDx=0;entryDy=0;" parent="WIyWlLk6GJQsqaUBKTNV-1" source="hQmpsot-Bo15s6lT0mzz-6" target="ltHdWcRN-C3PWxI5edL5-12" edge="1">
          <mxGeometry relative="1" as="geometry">
            <mxPoint x="409" y="710" as="sourcePoint" />
            <mxPoint x="448" y="528" as="targetPoint" />
          </mxGeometry>
        </mxCell>
        <mxCell id="PPIgT-XpNRlkjWeEEBD5-11" value="&lt;b&gt;いいえ&lt;/b&gt;" style="edgeLabel;html=1;align=center;verticalAlign=middle;resizable=0;points=[];" parent="hQmpsot-Bo15s6lT0mzz-34" vertex="1" connectable="0">
          <mxGeometry x="-0.9063" y="1" relative="1" as="geometry">
            <mxPoint x="13" y="1" as="offset" />
          </mxGeometry>
        </mxCell>
        <mxCell id="PPIgT-XpNRlkjWeEEBD5-0" style="edgeStyle=orthogonalEdgeStyle;rounded=0;orthogonalLoop=1;jettySize=auto;html=1;" parent="WIyWlLk6GJQsqaUBKTNV-1" source="hQmpsot-Bo15s6lT0mzz-6" edge="1">
          <mxGeometry relative="1" as="geometry">
            <mxPoint x="208" y="690" as="targetPoint" />
          </mxGeometry>
        </mxCell>
        <mxCell id="PPIgT-XpNRlkjWeEEBD5-9" value="" style="edgeStyle=orthogonalEdgeStyle;rounded=0;orthogonalLoop=1;jettySize=auto;html=1;" parent="WIyWlLk6GJQsqaUBKTNV-1" source="hQmpsot-Bo15s6lT0mzz-6" target="PPIgT-XpNRlkjWeEEBD5-3" edge="1">
          <mxGeometry relative="1" as="geometry" />
        </mxCell>
        <mxCell id="PPIgT-XpNRlkjWeEEBD5-10" value="&lt;b&gt;はい&lt;/b&gt;" style="edgeLabel;html=1;align=center;verticalAlign=middle;resizable=0;points=[];" parent="PPIgT-XpNRlkjWeEEBD5-9" vertex="1" connectable="0">
          <mxGeometry x="-0.0409" y="1" relative="1" as="geometry">
            <mxPoint as="offset" />
          </mxGeometry>
        </mxCell>
        <mxCell id="hQmpsot-Bo15s6lT0mzz-6" value="&lt;font face=&quot;Times New Roman&quot;&gt;&lt;b&gt;認証済みですか&lt;/b&gt;&lt;/font&gt;" style="strokeWidth=2;html=1;shape=mxgraph.flowchart.decision;whiteSpace=wrap;" parent="WIyWlLk6GJQsqaUBKTNV-1" vertex="1">
          <mxGeometry x="259" y="640" width="150" height="100" as="geometry" />
        </mxCell>
        <mxCell id="hQmpsot-Bo15s6lT0mzz-7" style="edgeStyle=orthogonalEdgeStyle;rounded=0;orthogonalLoop=1;jettySize=auto;html=1;entryX=0.5;entryY=0;entryDx=0;entryDy=0;entryPerimeter=0;" parent="WIyWlLk6GJQsqaUBKTNV-1" source="hQmpsot-Bo15s6lT0mzz-4" target="hQmpsot-Bo15s6lT0mzz-6" edge="1">
          <mxGeometry relative="1" as="geometry" />
        </mxCell>
        <mxCell id="hQmpsot-Bo15s6lT0mzz-8" value="" style="group" parent="WIyWlLk6GJQsqaUBKTNV-1" vertex="1" connectable="0">
          <mxGeometry x="592" y="585" width="130" height="40" as="geometry" />
        </mxCell>
        <mxCell id="hQmpsot-Bo15s6lT0mzz-9" value="" style="rounded=1;whiteSpace=wrap;html=1;" parent="hQmpsot-Bo15s6lT0mzz-8" vertex="1">
          <mxGeometry width="130.00000000000003" height="40" as="geometry" />
        </mxCell>
        <mxCell id="hQmpsot-Bo15s6lT0mzz-10" value="メールから認証ボタン" style="text;html=1;strokeColor=none;fillColor=none;align=center;verticalAlign=middle;whiteSpace=wrap;rounded=0;fontSize=12;fontStyle=1" parent="hQmpsot-Bo15s6lT0mzz-8" vertex="1">
          <mxGeometry y="5" width="130.00000000000003" height="30" as="geometry" />
        </mxCell>
        <mxCell id="hQmpsot-Bo15s6lT0mzz-11" style="edgeStyle=orthogonalEdgeStyle;rounded=0;orthogonalLoop=1;jettySize=auto;html=1;entryX=0.454;entryY=-0.125;entryDx=0;entryDy=0;entryPerimeter=0;" parent="WIyWlLk6GJQsqaUBKTNV-1" source="ltHdWcRN-C3PWxI5edL5-12" target="hQmpsot-Bo15s6lT0mzz-9" edge="1">
          <mxGeometry relative="1" as="geometry" />
        </mxCell>
        <mxCell id="hQmpsot-Bo15s6lT0mzz-12" value="" style="group" parent="WIyWlLk6GJQsqaUBKTNV-1" vertex="1" connectable="0">
          <mxGeometry x="594" y="220" width="128" height="40" as="geometry" />
        </mxCell>
        <mxCell id="hQmpsot-Bo15s6lT0mzz-13" value="" style="rounded=1;whiteSpace=wrap;html=1;" parent="hQmpsot-Bo15s6lT0mzz-12" vertex="1">
          <mxGeometry width="128" height="40" as="geometry" />
        </mxCell>
        <mxCell id="hQmpsot-Bo15s6lT0mzz-31" style="edgeStyle=orthogonalEdgeStyle;rounded=0;orthogonalLoop=1;jettySize=auto;html=1;" parent="hQmpsot-Bo15s6lT0mzz-12" source="hQmpsot-Bo15s6lT0mzz-14" edge="1">
          <mxGeometry relative="1" as="geometry">
            <mxPoint x="-114" y="20" as="targetPoint" />
          </mxGeometry>
        </mxCell>
        <mxCell id="hQmpsot-Bo15s6lT0mzz-14" value="認証完了ページ" style="text;html=1;strokeColor=none;fillColor=none;align=center;verticalAlign=middle;whiteSpace=wrap;rounded=0;fontSize=12;fontStyle=1" parent="hQmpsot-Bo15s6lT0mzz-12" vertex="1">
          <mxGeometry y="5" width="128" height="30" as="geometry" />
        </mxCell>
        <mxCell id="hQmpsot-Bo15s6lT0mzz-29" style="edgeStyle=orthogonalEdgeStyle;rounded=0;orthogonalLoop=1;jettySize=auto;html=1;entryX=0.325;entryY=-0.044;entryDx=0;entryDy=0;entryPerimeter=0;" parent="WIyWlLk6GJQsqaUBKTNV-1" source="aztCClMb9fiekYysPnz5-51" target="hQmpsot-Bo15s6lT0mzz-13" edge="1">
          <mxGeometry relative="1" as="geometry" />
        </mxCell>
        <mxCell id="hQmpsot-Bo15s6lT0mzz-27" style="edgeStyle=orthogonalEdgeStyle;rounded=0;orthogonalLoop=1;jettySize=auto;html=1;entryX=0.61;entryY=1.033;entryDx=0;entryDy=0;entryPerimeter=0;" parent="WIyWlLk6GJQsqaUBKTNV-1" source="hQmpsot-Bo15s6lT0mzz-10" target="hQmpsot-Bo15s6lT0mzz-14" edge="1">
          <mxGeometry relative="1" as="geometry">
            <mxPoint x="704" y="272" as="targetPoint" />
            <Array as="points">
              <mxPoint x="672" y="585" />
            </Array>
          </mxGeometry>
        </mxCell>
        <mxCell id="PPIgT-XpNRlkjWeEEBD5-1" value="" style="group;rounded=0;" parent="WIyWlLk6GJQsqaUBKTNV-1" vertex="1" connectable="0">
          <mxGeometry x="61" y="670" width="104" height="40" as="geometry" />
        </mxCell>
        <mxCell id="PPIgT-XpNRlkjWeEEBD5-2" value="" style="rounded=1;whiteSpace=wrap;html=1;" parent="PPIgT-XpNRlkjWeEEBD5-1" vertex="1">
          <mxGeometry width="104" height="40" as="geometry" />
        </mxCell>
        <mxCell id="PPIgT-XpNRlkjWeEEBD5-3" value="メインページ" style="text;html=1;strokeColor=none;fillColor=none;align=center;verticalAlign=middle;whiteSpace=wrap;rounded=0;fontSize=12;fontStyle=1" parent="PPIgT-XpNRlkjWeEEBD5-1" vertex="1">
          <mxGeometry y="5" width="104" height="30" as="geometry" />
        </mxCell>
        <mxCell id="PPIgT-XpNRlkjWeEEBD5-8" value="トップページ" style="rounded=1;whiteSpace=wrap;html=1;fontSize=12;glass=0;strokeWidth=1;shadow=0;fontStyle=1;fillColor=#333;fontColor=#fff;" parent="WIyWlLk6GJQsqaUBKTNV-1" vertex="1">
          <mxGeometry x="254" y="824" width="120" height="40" as="geometry" />
        </mxCell>
        <mxCell id="PPIgT-XpNRlkjWeEEBD5-16" style="edgeStyle=orthogonalEdgeStyle;rounded=0;orthogonalLoop=1;jettySize=auto;html=1;" parent="WIyWlLk6GJQsqaUBKTNV-1" source="PPIgT-XpNRlkjWeEEBD5-15" edge="1">
          <mxGeometry relative="1" as="geometry">
            <mxPoint x="127" y="704" as="targetPoint" />
          </mxGeometry>
        </mxCell>
        <mxCell id="PPIgT-XpNRlkjWeEEBD5-20" value="&lt;b&gt;はい&lt;/b&gt;" style="edgeLabel;html=1;align=center;verticalAlign=middle;resizable=0;points=[];" parent="PPIgT-XpNRlkjWeEEBD5-16" vertex="1" connectable="0">
          <mxGeometry x="-0.027" y="-2" relative="1" as="geometry">
            <mxPoint as="offset" />
          </mxGeometry>
        </mxCell>
        <mxCell id="PPIgT-XpNRlkjWeEEBD5-17" style="edgeStyle=orthogonalEdgeStyle;rounded=0;orthogonalLoop=1;jettySize=auto;html=1;entryX=0.563;entryY=0.036;entryDx=0;entryDy=0;entryPerimeter=0;" parent="WIyWlLk6GJQsqaUBKTNV-1" edge="1" target="PPIgT-XpNRlkjWeEEBD5-8">
          <mxGeometry relative="1" as="geometry">
            <mxPoint x="352" y="784" as="targetPoint" />
            <mxPoint x="240" y="784" as="sourcePoint" />
          </mxGeometry>
        </mxCell>
        <mxCell id="PPIgT-XpNRlkjWeEEBD5-21" value="&lt;b&gt;いいえ&lt;/b&gt;" style="edgeLabel;html=1;align=center;verticalAlign=middle;resizable=0;points=[];" parent="PPIgT-XpNRlkjWeEEBD5-17" vertex="1" connectable="0">
          <mxGeometry x="0.0661" y="2" relative="1" as="geometry">
            <mxPoint as="offset" />
          </mxGeometry>
        </mxCell>
        <mxCell id="PPIgT-XpNRlkjWeEEBD5-15" value="&lt;b&gt;クッキーはありますか？&lt;br&gt;������&lt;br&gt;&lt;/b&gt;" style="rhombus;whiteSpace=wrap;html=1;" parent="WIyWlLk6GJQsqaUBKTNV-1" vertex="1">
          <mxGeometry x="61" y="740" width="195" height="92" as="geometry" />
        </mxCell>
        <mxCell id="PPIgT-XpNRlkjWeEEBD5-19" style="edgeStyle=orthogonalEdgeStyle;rounded=0;orthogonalLoop=1;jettySize=auto;html=1;" parent="WIyWlLk6GJQsqaUBKTNV-1" source="PPIgT-XpNRlkjWeEEBD5-18" target="PPIgT-XpNRlkjWeEEBD5-15" edge="1">
          <mxGeometry relative="1" as="geometry" />
        </mxCell>
        <mxCell id="PPIgT-XpNRlkjWeEEBD5-18" value="&lt;b&gt;&lt;u&gt;イントロダクション&lt;br&gt;ページ&lt;/u&gt;&lt;/b&gt;" style="rounded=0;whiteSpace=wrap;html=1;" parent="WIyWlLk6GJQsqaUBKTNV-1" vertex="1">
          <mxGeometry x="98.5" y="864" width="120" height="60" as="geometry" />
        </mxCell>
      </root>
    </mxGraphModel>
  </diagram>
</mxfile>
